<svg width="82" height="82" viewBox="0 0 82 82" fill="none" xmlns="http://www.w3.org/2000/svg">
<path d="M65.4142 15.004L60.908 4.88295C59.0653 0.744217 54.1715 -1.13437 50.0327 0.708315L39.9117 5.21451L29.5801 1.24861C25.3388 -0.379499 20.5604 1.74796 18.9323 5.98932L15.004 16.3041L4.88297 20.8103C0.744239 22.653 -1.13435 27.5468 0.708335 31.6856L5.21453 41.8066L1.24862 52.1382C-0.379483 56.3795 1.74797 61.1579 5.98934 62.786L16.3209 66.7519L20.8103 76.8353C22.653 80.9741 27.5469 82.8526 31.6856 81.01L41.8067 76.5038L52.1382 80.4697C56.3796 82.0978 61.1579 79.9703 62.786 75.729L66.7519 65.3974L76.8354 60.908C80.9741 59.0653 82.8527 54.1714 81.01 50.0327L76.5038 39.9116L80.4697 29.5801C82.0978 25.3387 79.9704 20.5604 75.729 18.9323L65.4142 15.004Z" fill="black" fill-opacity="0.1"/>
</svg>
